<?xml version="1.0" standalone="no"?>
<!DOCTYPE svg PUBLIC "-//W3C//DTD SVG 20010904//EN"
 "http://www.w3.org/TR/2001/REC-SVG-20010904/DTD/svg10.dtd">
<svg version="1.0" xmlns="http://www.w3.org/2000/svg"
 width="25.000000pt" height="40.000000pt" viewBox="0 0 25.000000 40.000000"
 preserveAspectRatio="xMidYMid meet">

<g transform="translate(0.000000,40.000000) scale(0.100000,-0.100000)"
fill="#8047F8" stroke="none">
<path d="M40 375 c0 -9 -7 -18 -15 -21 -8 -4 -15 -12 -15 -20 0 -11 24 -14
120 -14 96 0 120 3 120 14 0 8 -7 16 -15 20 -8 3 -15 12 -15 21 0 12 -16 15
-90 15 -74 0 -90 -3 -90 -15z"/>
<path d="M36 208 c6 -99 21 -178 35 -178 14 0 40 46 42 76 1 22 -2 29 -15 28
-20 -2 -23 16 -9 44 5 9 14 29 20 45 6 15 15 27 19 27 9 0 52 -93 52 -112 0
-5 -8 -8 -17 -6 -27 4 -21 -57 8 -88 l23 -24 12 47 c6 27 14 90 17 141 l6 92
-100 0 -99 0 6 -92z"/>
</g>
</svg>
